<mxfile host="app.diagrams.net" modified="2024-02-19T02:26:11.304Z" agent="Mozilla/5.0 (Windows NT 10.0; Win64; x64) AppleWebKit/537.36 (KHTML, like Gecko) Chrome/121.0.0.0 Safari/537.36" etag="wfrYH-ea_bP6CNQFDsOJ" version="23.1.5" type="github">
  <diagram name="Page-1" id="FB_v1KUi_isar1U8KDkH">
    <mxGraphModel dx="1434" dy="772" grid="1" gridSize="10" guides="1" tooltips="1" connect="1" arrows="1" fold="1" page="1" pageScale="1" pageWidth="850" pageHeight="1100" math="0" shadow="0">
      <root>
        <mxCell id="0" />
        <mxCell id="1" parent="0" />
        <mxCell id="spBlb2e0U2WBh5Fl4eiT-1" value="" style="rounded=0;whiteSpace=wrap;html=1;" vertex="1" parent="1">
          <mxGeometry x="290" y="100" width="250" height="540" as="geometry" />
        </mxCell>
        <mxCell id="spBlb2e0U2WBh5Fl4eiT-2" value="" style="ellipse;whiteSpace=wrap;html=1;" vertex="1" parent="1">
          <mxGeometry x="340" y="170" width="150" height="80" as="geometry" />
        </mxCell>
        <mxCell id="spBlb2e0U2WBh5Fl4eiT-3" value="" style="ellipse;whiteSpace=wrap;html=1;" vertex="1" parent="1">
          <mxGeometry x="340" y="280" width="150" height="80" as="geometry" />
        </mxCell>
        <mxCell id="spBlb2e0U2WBh5Fl4eiT-4" value="" style="ellipse;whiteSpace=wrap;html=1;" vertex="1" parent="1">
          <mxGeometry x="340" y="380" width="150" height="80" as="geometry" />
        </mxCell>
        <mxCell id="spBlb2e0U2WBh5Fl4eiT-5" value="" style="ellipse;whiteSpace=wrap;html=1;" vertex="1" parent="1">
          <mxGeometry x="340" y="500" width="150" height="80" as="geometry" />
        </mxCell>
        <mxCell id="spBlb2e0U2WBh5Fl4eiT-6" value="Perpus Diggital" style="text;html=1;align=center;verticalAlign=middle;whiteSpace=wrap;rounded=0;" vertex="1" parent="1">
          <mxGeometry x="360" y="110" width="110" height="30" as="geometry" />
        </mxCell>
        <mxCell id="spBlb2e0U2WBh5Fl4eiT-7" value="From pengunjung" style="text;html=1;align=center;verticalAlign=middle;whiteSpace=wrap;rounded=0;" vertex="1" parent="1">
          <mxGeometry x="385" y="195" width="60" height="30" as="geometry" />
        </mxCell>
        <mxCell id="spBlb2e0U2WBh5Fl4eiT-8" value="Pencarian buku" style="text;html=1;align=center;verticalAlign=middle;whiteSpace=wrap;rounded=0;" vertex="1" parent="1">
          <mxGeometry x="385" y="305" width="60" height="30" as="geometry" />
        </mxCell>
        <mxCell id="spBlb2e0U2WBh5Fl4eiT-9" value="Detail buku" style="text;html=1;align=center;verticalAlign=middle;whiteSpace=wrap;rounded=0;" vertex="1" parent="1">
          <mxGeometry x="385" y="405" width="60" height="30" as="geometry" />
        </mxCell>
        <mxCell id="spBlb2e0U2WBh5Fl4eiT-10" value="Laporan&lt;br&gt;statistik" style="text;html=1;align=center;verticalAlign=middle;whiteSpace=wrap;rounded=0;" vertex="1" parent="1">
          <mxGeometry x="385" y="525" width="60" height="30" as="geometry" />
        </mxCell>
        <mxCell id="spBlb2e0U2WBh5Fl4eiT-11" value="Actor" style="shape=umlActor;verticalLabelPosition=bottom;verticalAlign=top;html=1;outlineConnect=0;" vertex="1" parent="1">
          <mxGeometry x="50" y="240" width="100" height="170" as="geometry" />
        </mxCell>
        <mxCell id="spBlb2e0U2WBh5Fl4eiT-12" value="Actor" style="shape=umlActor;verticalLabelPosition=bottom;verticalAlign=top;html=1;outlineConnect=0;" vertex="1" parent="1">
          <mxGeometry x="690" y="250" width="100" height="170" as="geometry" />
        </mxCell>
        <mxCell id="spBlb2e0U2WBh5Fl4eiT-13" value="" style="endArrow=none;html=1;rounded=0;" edge="1" parent="1" source="spBlb2e0U2WBh5Fl4eiT-11" target="spBlb2e0U2WBh5Fl4eiT-2">
          <mxGeometry width="50" height="50" relative="1" as="geometry">
            <mxPoint x="400" y="420" as="sourcePoint" />
            <mxPoint x="450" y="370" as="targetPoint" />
            <Array as="points">
              <mxPoint x="230" y="210" />
            </Array>
          </mxGeometry>
        </mxCell>
        <mxCell id="spBlb2e0U2WBh5Fl4eiT-14" value="" style="endArrow=none;html=1;rounded=0;" edge="1" parent="1" source="spBlb2e0U2WBh5Fl4eiT-11" target="spBlb2e0U2WBh5Fl4eiT-3">
          <mxGeometry width="50" height="50" relative="1" as="geometry">
            <mxPoint x="400" y="420" as="sourcePoint" />
            <mxPoint x="450" y="370" as="targetPoint" />
            <Array as="points" />
          </mxGeometry>
        </mxCell>
        <mxCell id="spBlb2e0U2WBh5Fl4eiT-15" value="" style="endArrow=none;html=1;rounded=0;" edge="1" parent="1" source="spBlb2e0U2WBh5Fl4eiT-11" target="spBlb2e0U2WBh5Fl4eiT-4">
          <mxGeometry width="50" height="50" relative="1" as="geometry">
            <mxPoint x="400" y="420" as="sourcePoint" />
            <mxPoint x="450" y="370" as="targetPoint" />
            <Array as="points">
              <mxPoint x="240" y="420" />
            </Array>
          </mxGeometry>
        </mxCell>
        <mxCell id="spBlb2e0U2WBh5Fl4eiT-16" value="" style="endArrow=none;html=1;rounded=0;" edge="1" parent="1" source="spBlb2e0U2WBh5Fl4eiT-2" target="spBlb2e0U2WBh5Fl4eiT-12">
          <mxGeometry width="50" height="50" relative="1" as="geometry">
            <mxPoint x="400" y="420" as="sourcePoint" />
            <mxPoint x="450" y="370" as="targetPoint" />
            <Array as="points">
              <mxPoint x="590" y="210" />
            </Array>
          </mxGeometry>
        </mxCell>
        <mxCell id="spBlb2e0U2WBh5Fl4eiT-18" value="" style="endArrow=none;html=1;rounded=0;" edge="1" parent="1" source="spBlb2e0U2WBh5Fl4eiT-3" target="spBlb2e0U2WBh5Fl4eiT-12">
          <mxGeometry width="50" height="50" relative="1" as="geometry">
            <mxPoint x="400" y="420" as="sourcePoint" />
            <mxPoint x="650" y="320" as="targetPoint" />
            <Array as="points">
              <mxPoint x="570" y="320" />
            </Array>
          </mxGeometry>
        </mxCell>
        <mxCell id="spBlb2e0U2WBh5Fl4eiT-19" value="" style="endArrow=none;html=1;rounded=0;" edge="1" parent="1" source="spBlb2e0U2WBh5Fl4eiT-4" target="spBlb2e0U2WBh5Fl4eiT-12">
          <mxGeometry width="50" height="50" relative="1" as="geometry">
            <mxPoint x="400" y="420" as="sourcePoint" />
            <mxPoint x="640" y="390" as="targetPoint" />
            <Array as="points">
              <mxPoint x="580" y="420" />
            </Array>
          </mxGeometry>
        </mxCell>
        <mxCell id="spBlb2e0U2WBh5Fl4eiT-21" value="" style="endArrow=none;html=1;rounded=0;" edge="1" parent="1" source="spBlb2e0U2WBh5Fl4eiT-5" target="spBlb2e0U2WBh5Fl4eiT-12">
          <mxGeometry width="50" height="50" relative="1" as="geometry">
            <mxPoint x="400" y="420" as="sourcePoint" />
            <mxPoint x="640" y="440" as="targetPoint" />
            <Array as="points">
              <mxPoint x="600" y="500" />
            </Array>
          </mxGeometry>
        </mxCell>
      </root>
    </mxGraphModel>
  </diagram>
</mxfile>
